<?xml version="1.0" encoding="utf-8"?>
<!-- Generator: Adobe Illustrator 16.0.3, SVG Export Plug-In . SVG Version: 6.00 Build 0)  -->
<!DOCTYPE svg PUBLIC "-//W3C//DTD SVG 1.1//EN" "http://www.w3.org/Graphics/SVG/1.1/DTD/svg11.dtd">
<svg version="1.1" id="Capa_1" xmlns="http://www.w3.org/2000/svg" xmlns:xlink="http://www.w3.org/1999/xlink" x="0px" y="0px"
	 width="600px" height="300px" viewBox="0 0 600 300" enable-background="new 0 0 600 300" xml:space="preserve">
<g>
	<path fill-rule="evenodd" clip-rule="evenodd" fill="#CBBDDC" d="M517.809,62.698c0,7.833,1.922,11.913,2.719,18.673
		c-5.238-1.692-5.582-7.976-18.057-8.38c-2.496-0.081-3.059,0.504-3.467-2.463c-0.035-0.979,0.207-1.977,0.33-2.658
		c0.996-5.485-0.82-9.613-6.359-11.446c-6.506-2.152-16.221,0.683-23.137,0.07c-0.662-1.033-1.91-4.53-2.738-6.135
		c-4.619-8.643-20.008-8.291-20.459,7.227c-9.471,2.853-23.488,1.682-26.291,11.384c-1.342,4.648,1.871,6.491,2.965,9.455
		c-3.793,2.877-6.916,3.249-10.133,8.051c-3.326,4.973-4.875,7.389-6.799,12.827c-3.125-4.04-5.125-20.625-17.387-17.541
		c-4.723,0.904-6.936,6.296-7.293,9.783c-0.965-2.66-3.744-29.911-4.012-34.315c-0.471-7.667-4.768-22.198-13.527-24.931
		c-7.217-2.252-14.586-1.037-20.166,3.843c-8.57,10.541-13.967,18.705-19.127,31.704l-17.408,49.917
		c-2.232,10.208-5.211,20.644-6.774,31.041c-1.729,11.504-4.819,22.108-5.392,33.654c-0.191,3.844,0.179,5.508-1.889,7.554
		c0.145-2.53-0.56-2.297-5.621-3.535c-3.271-0.801-6.274-0.806-8.22-2.205c5.977-4.767,10.708-15.498,14.249-28.922
		c3.742-14.199,2.352-24.412-1.238-37.713c-2.18-8.077-6.316-16.943-13.92-21.196c-5.871-3.283-6.261-3.121-14.28-3.069
		c-0.315-2.978,6.752-20.077-17.813-17.064c-2.805,0.343-1.393,0.771-4.84,0.875c-2.207,0.066-4.626-0.048-6.87-0.036
		c-2.138-10.749-12.469-16.282-19.972-7.963c-1.467,1.906-3.845,5.899-2.388,8.473c-8.154,3.327-19.329,2.374-23.906,7.638
		c-6.625,7.618-0.247,8.539-0.087,14.313c-8.212,0.556-10.207,0.432-16.109,4.465c-6.434,4.397-5.939,3.719-11.34,9.896
		c-2.99,3.42-9.794,15.87-11.033,20.323c-0.446,1.602-0.686,3.083-1.073,4.381c-0.572,1.912-0.974,2.871-2.266,3.692l-0.946-4.039
		c-0.502-17.092,0.289-59.856-3.497-72.973c-0.657-2.281-1.663-4.822-2.628-6.556c-3.795-6.812-10.125-8.871-18.427-6.318
		c-16.209,4.983-29.083,59.882-32.854,75.403c-1.427,5.474-10.382,73.56-15.573,54.571C69.831,171.762,45.11,76.027,27.118,71.065
		c-4.103-1.133-10.128-0.532-13.439,0.959c-9.917,4.464-8.612,48.101-8.633,61.441c0,16.042,5.004,126.133,24.823,127.632
		c1.553,0.117,5.739,0.113,7.201-0.154c6.762-1.234,9.744-6.398,9.753-13.753c0.007-5.931-8.884-61.383-5.54-52.525
		c0.643,1.984,1.144,4.196,1.686,6.225c3.165,10.884,10.319,25.514,16.614,34.106c10.74,14.661,33.814,9.997,35.968-10.185
		c1.373-7.079,15.286-88.771,19.177-89.678l2.287,124.146c0.167,2.56,1.224,7.956,2.666,10.073l1.387,1.674
		c3.891,4.532,13.805,3.98,18.908,1.606c7.073-3.291,7.919-5.971,7.867-14.566l-0.684-55.197c2.599,2.424,4.927,5.428,7.301,8.098
		c26.162,20.674,27.056-12.687,33.974-20.764c3.262,5.555,1.078,11.277,7.754,18.257c7.525,7.863,12.46,2.428,21.897,4.19
		c11.062,27.333,32.252,21.055,35.191,6.676c-0.421-6.545-5.611-11.425-5.3-18.437c3.754,0.686,1.116,0.136,2.927,1.453
		c0.118,0.088,0.238,0.207,0.351,0.291c9.792,7.354,27.768,8.317,38.746,2.666c1.697-0.874-0.2-1.046,2.26-0.735l-1.348,22.656
		c-0.006,5.957,0.397,13.295,5.882,15.729c2.669,1.186,12.902,0.728,15.523-0.607c1.766-1.417,2.977-36.553,4.826-42.006
		c1.188-3.501,8.408-4.062,12.439-5.005c1.949-0.455,3.791-0.416,5.748-0.646c4.795-0.572,15.9-4.24,20.723-1.488
		c2.016,2.057,3.002,13.478,3.656,17.247l1.66,8.615c1.869,9.632,3.85,30.569,14.959,32.842c7.246,1.479,16.273,0.138,19.908-5.717
		c4.486-7.229-0.77-28.645-1.576-37.57l-1.467-8.911c-0.242-1.65-0.287-3.472-0.527-5.063c-0.424-2.766-0.832-1.27-0.992-4.427
		c4.172,0.627,7.49,6.322,18.918,1.414c6.994-3.009,5.127-9.654,5.666-18.238c0.455-7.279,1.918-36.675,5.146-41.355
		c2.406,6.262,0.264,7.605,6.908,13.855c0.582,0.552,0.111,0.271,0.885,0.891c6.625,5.287,13.354,1.38,18.541,3.249
		c0.273,4.041,0.084,8.386,0.229,12.482c0.34,9.716,3.674,35.532,11.809,43.315l3.723,2.804c0.377,0.233,2.139,1.416,2.217,1.458
		c2.236,1.187,8.9,1.527,11.971,1.176c4.334-0.5,5.455-2.721,8.725-4.003c0.625-3.592,1.82-4.8,1.547-7.779
		c-0.232-2.502-1.139-5.538-1.965-7.313c-0.459-0.976-1.076-1.808-1.473-2.708c-0.973-2.197-3.326-9.239-2.604-10.53
		c1.16,0.453,2.117,1.682,3.316,2.682c1.689,1.406,1.293,1.259,3.594,2.478c9.266,4.913,22.4,5.288,31.779,2.486
		c1.455-0.435,3.238-1.055,4.285-1.709l3.559-2.509c4.133-5.609,2.963-13.267-3.811-15.837c-3.063-1.158-9.104-1.334-10.816-2.208
		l2.662-3.574c3.438-4.039,9.307-14.345,10.322-19.816c2.258-12.157,5.289-19.494,3.166-33.297
		c-3.125-20.326-11.908-22.489,5.561-7.16c10.281,8.898,32.494,7.55,43.117-0.316c13.363-9.9,17.77-33.542,15.824-49.569
		c-2.672-22.029-16.307-34.432-38.127-34.432c-10.613,0-21.645,5.777-28.156,14.187C520.848,39.818,517.809,50.799,517.809,62.698z
		 M346.967,70.112c-5.172,4.284-15.297,39.558-17.951,50.208c-2.373,9.497-4.439,18.125-6.408,27.898
		c-4.613,22.89-4.307,23.671,5.621,22.605c4.625-0.497,9.48-1.263,14.1-1.98c16.986-2.629,12.59-4.355,11.795-37.392
		c-0.25-10.484-0.73-22.702-1.572-33.23c-0.418-5.27-0.668-10.879-1.037-16.159C351.266,78.59,351.262,66.558,346.967,70.112z"/>
	<path fill="none" stroke="#CBBDDC" stroke-width="0.5669" stroke-miterlimit="22.9256" d="M517.809,62.698
		c0,7.833,1.922,11.913,2.719,18.673c-5.238-1.692-5.582-7.976-18.057-8.38c-2.496-0.081-3.059,0.504-3.467-2.463
		c-0.035-0.979,0.207-1.977,0.33-2.658c0.996-5.485-0.82-9.613-6.359-11.446c-6.506-2.152-16.221,0.683-23.137,0.07
		c-0.662-1.033-1.91-4.53-2.738-6.135c-4.619-8.643-20.008-8.291-20.459,7.227c-9.471,2.853-23.488,1.682-26.291,11.384
		c-1.342,4.648,1.871,6.491,2.965,9.455c-3.793,2.877-6.916,3.249-10.133,8.051c-3.326,4.973-4.875,7.389-6.799,12.827
		c-3.125-4.04-5.125-20.625-17.387-17.541c-4.723,0.904-6.936,6.296-7.293,9.783c-0.965-2.66-3.744-29.911-4.012-34.315
		c-0.471-7.667-4.768-22.198-13.527-24.931c-7.217-2.252-14.586-1.037-20.166,3.843c-8.57,10.541-13.967,18.705-19.127,31.704
		l-17.408,49.917c-2.232,10.208-5.211,20.644-6.774,31.041c-1.729,11.504-4.819,22.108-5.392,33.654
		c-0.191,3.844,0.179,5.508-1.889,7.554c0.145-2.53-0.56-2.297-5.621-3.535c-3.271-0.801-6.274-0.806-8.22-2.205
		c5.977-4.767,10.708-15.498,14.249-28.922c3.742-14.199,2.352-24.412-1.238-37.713c-2.18-8.077-6.316-16.943-13.92-21.196
		c-5.871-3.283-6.261-3.121-14.28-3.069c-0.315-2.978,6.752-20.077-17.813-17.064c-2.805,0.343-1.393,0.771-4.84,0.875
		c-2.207,0.066-4.626-0.048-6.87-0.036c-2.138-10.749-12.469-16.282-19.972-7.963c-1.467,1.906-3.845,5.899-2.388,8.473
		c-8.154,3.327-19.329,2.374-23.906,7.638c-6.625,7.618-0.247,8.539-0.087,14.313c-8.212,0.556-10.207,0.432-16.109,4.465
		c-6.434,4.397-5.939,3.719-11.34,9.896c-2.99,3.42-9.794,15.87-11.033,20.323c-0.446,1.602-0.686,3.083-1.073,4.381
		c-0.572,1.912-0.974,2.871-2.266,3.692l-0.946-4.039c-0.502-17.092,0.289-59.856-3.497-72.973
		c-0.657-2.281-1.663-4.822-2.628-6.556c-3.795-6.812-10.125-8.871-18.427-6.318c-16.209,4.983-29.083,59.882-32.854,75.403
		c-1.427,5.474-10.382,73.56-15.573,54.571C69.831,171.762,45.11,76.027,27.118,71.065c-4.103-1.133-10.128-0.532-13.439,0.959
		c-9.917,4.464-8.612,48.101-8.633,61.441c0,16.042,5.004,126.133,24.823,127.632c1.553,0.117,5.739,0.113,7.201-0.154
		c6.762-1.234,9.744-6.398,9.753-13.753c0.007-5.931-8.884-61.383-5.54-52.525c0.643,1.984,1.144,4.196,1.686,6.225
		c3.165,10.884,10.319,25.514,16.614,34.106c10.74,14.661,33.814,9.997,35.968-10.185c1.373-7.079,15.286-88.771,19.177-89.678
		l2.287,124.146c0.167,2.56,1.224,7.956,2.666,10.073l1.387,1.674c3.891,4.532,13.805,3.98,18.908,1.606
		c7.073-3.291,7.919-5.971,7.867-14.566l-0.684-55.197c2.599,2.424,4.927,5.428,7.301,8.098
		c26.162,20.674,27.056-12.687,33.974-20.764c3.262,5.555,1.078,11.277,7.754,18.257c7.525,7.863,12.46,2.428,21.897,4.19
		c11.062,27.333,32.252,21.055,35.191,6.676c-0.421-6.545-5.611-11.425-5.3-18.437c3.754,0.686,1.116,0.136,2.927,1.453
		c0.118,0.088,0.238,0.207,0.351,0.291c9.792,7.354,27.768,8.317,38.746,2.666c1.697-0.874-0.2-1.046,2.26-0.735l-1.348,22.656
		c-0.006,5.957,0.397,13.295,5.882,15.729c2.669,1.186,12.902,0.728,15.523-0.607c1.766-1.417,2.977-36.553,4.826-42.006
		c1.188-3.501,8.408-4.062,12.439-5.005c1.949-0.455,3.791-0.416,5.748-0.646c4.795-0.572,15.9-4.24,20.723-1.488
		c2.016,2.057,3.002,13.478,3.656,17.247l1.66,8.615c1.869,9.632,3.85,30.569,14.959,32.842c7.246,1.479,16.273,0.138,19.908-5.717
		c4.486-7.229-0.77-28.645-1.576-37.57l-1.467-8.911c-0.242-1.65-0.287-3.472-0.527-5.063c-0.424-2.766-0.832-1.27-0.992-4.427
		c4.172,0.627,7.49,6.322,18.918,1.414c6.994-3.009,5.127-9.654,5.666-18.238c0.455-7.279,1.918-36.675,5.146-41.355
		c2.406,6.262,0.264,7.605,6.908,13.855c0.582,0.552,0.111,0.271,0.885,0.891c6.625,5.287,13.354,1.38,18.541,3.249
		c0.273,4.041,0.084,8.386,0.229,12.482c0.34,9.716,3.674,35.532,11.809,43.315l3.723,2.804c0.377,0.233,2.139,1.416,2.217,1.458
		c2.236,1.187,8.9,1.527,11.971,1.176c4.334-0.5,5.455-2.721,8.725-4.003c0.625-3.592,1.82-4.8,1.547-7.779
		c-0.232-2.502-1.139-5.538-1.965-7.313c-0.459-0.976-1.076-1.808-1.473-2.708c-0.973-2.197-3.326-9.239-2.604-10.53
		c1.16,0.453,2.117,1.682,3.316,2.682c1.689,1.406,1.293,1.259,3.594,2.478c9.266,4.913,22.4,5.288,31.779,2.486
		c1.455-0.435,3.238-1.055,4.285-1.709l3.559-2.509c4.133-5.609,2.963-13.267-3.811-15.837c-3.063-1.158-9.104-1.334-10.816-2.208
		l2.662-3.574c3.438-4.039,9.307-14.345,10.322-19.816c2.258-12.157,5.289-19.494,3.166-33.297
		c-3.125-20.326-11.908-22.489,5.561-7.16c10.281,8.898,32.494,7.55,43.117-0.316c13.363-9.9,17.77-33.542,15.824-49.569
		c-2.672-22.029-16.307-34.432-38.127-34.432c-10.613,0-21.645,5.777-28.156,14.187C520.848,39.818,517.809,50.799,517.809,62.698z
		 M346.967,70.112c-5.172,4.284-15.297,39.558-17.951,50.208c-2.373,9.497-4.439,18.125-6.408,27.898
		c-4.613,22.89-4.307,23.671,5.621,22.605c4.625-0.497,9.48-1.263,14.1-1.98c16.986-2.629,12.59-4.355,11.795-37.392
		c-0.25-10.484-0.73-22.702-1.572-33.23c-0.418-5.27-0.668-10.879-1.037-16.159C351.266,78.59,351.262,66.558,346.967,70.112z"/>
	<path fill-rule="evenodd" clip-rule="evenodd" fill="#5E0F82" d="M72.822,206.507c-3.086-5.849-19.707-61.413-22.38-69.622
		c-4.653-14.29-12.536-36.456-18.932-50.002c-3.412-7.227-4.503-9.887-14.479-9.066c-8.394,10.074-5.706,74.768-3.933,92.066
		c1.57,15.313,2.905,29.731,5.274,44.428c1.45,8.975,6.034,34.748,10.413,39.202c2.612,0.659,5.583,0.857,7.809-0.261
		c2.173-1.089,2.334-2.99,2.314-6.162c-0.061-9.308-4.553-35.726-5.869-46.84c-1.173-9.912-6.64-57.723-4.554-63.896
		c3.883-0.218,3.719,2.008,4.706,5.694l15.815,56.183c3.116,10.282,7.605,20.456,12.667,28.492c2.833,4.499,5.06,8.976,11.655,9.066
		c8.996,0.128,10.789-0.426,13.05-7.775c3.712-12.071,10.517-52.537,13.783-68.452c3.066-14.938,7.612-35.562,11.585-50.13
		c1.412-5.184,2.36-12.865,7.464-13.533c2.769,4.605,2.506,63.566,2.557,74.353c0.044,9.395,0.676,87.101,2.463,93.109
		c2.012,6.755,13.444,2.266,13.923,1.894c3.392-2.641,1.587-29.916,1.487-36.315l-2.179-113.729
		c-0.165-9.398-0.154-45.187-4.614-52.811c-2.673-4.568-8.507-5.27-12.75-1.502c-4.811,4.271-10.374,17.986-13.191,25.541
		c-9.596,25.734-17.179,64.03-22.962,92.579c-1.112,5.49-2.097,10.793-3.281,16.057C79.33,200.994,79.344,206.788,72.822,206.507"/>
	<path fill-rule="evenodd" clip-rule="evenodd" fill="#5E0F82" d="M349.404,55.919c-6.895,5.196-20.373,47.978-23.914,60.896
		c-3.156,11.517-5.91,21.983-8.535,33.838c-6.146,27.764-5.734,28.711,7.486,27.415c6.162-0.604,12.631-1.532,18.783-2.399
		c22.625-3.193,16.771-5.284,15.713-45.353c-0.338-12.715-0.979-27.533-2.096-40.302c-0.557-6.391-0.891-13.197-1.387-19.597
		C355.131,66.202,355.125,51.607,349.404,55.919 M305.588,236.029c1.18-12.035,1.275-28.223,4.463-39.068
		c1.729-5.895,6.916-6.687,13.721-8.068l28.697-4.551c1.834-0.009,6.285,2.112,7.447,3.126c9.113,7.927,5.896,58.072,19.586,57.722
		c14.514-0.368,11.105-5.87,9.273-21.195c-1.566-13.065-3.904-25.597-5.816-38.385c-1.926-12.88-2.877-26.972-4.094-40.061
		l-8.002-79.748c-1.643-13.654-2.5-29.161-16.604-27.215c-9.463,1.304-15.896,16.449-19.816,24.284
		c-19.65,39.284-31.023,95.823-35.363,140.66c-0.502,5.189-2.76,25.935-1.436,30.484
		C298.781,237.917,301.93,236.413,305.588,236.029z"/>
	<path fill-rule="evenodd" clip-rule="evenodd" fill="#5E0F82" d="M192.498,158.344c2.136,2.602,1.621,10.471,1.818,14.925
		c0.244,5.526,0.7,10.901,1.271,16.337c1.801,17.096,7.669,16.559,17.438,15.621c-0.573-13.824-2.946-28.167-3.493-42.231
		c-0.278-7.143-0.85-14.74-1.166-21.855c-0.325-7.354-0.717-15.248-7.521-15.97c-6.842-0.723-8.744,6.451-10.895,11.606
		l-12.284,33.696c-1.616,5.043-3.596,14.171-8.095,15.388c-8.629-5.363,0.712-57.665,12.06-66.458
		c12.592-9.758,12.068,2.063,21.224-1.165c1.826-5.793-6.514-13.142-19.756-11.199c-9.081,1.331-14.636,7.885-18.853,13.733
		c-8.535,11.835-13.999,32.933-14.051,51.9c-0.022,7.879,0.903,22.935,4.335,28.377c3.361,5.328,13.994,14.601,19.408,4.402
		c5.68-10.701,10.088-29.968,14.784-42.657C189.724,160.091,189.889,158.473,192.498,158.344"/>
	<path fill-rule="evenodd" clip-rule="evenodd" fill="#5E0F82" d="M403.348,134.271c-2.24-4.186-2.553-26.997-5.729-37.728
		c-1.277-4.322-2.252-7.626-7.736-6.64c-4.609,5.898-1.264,41.947-0.521,51.851c0.621,8.292,1.428,16.575,2.467,24.72
		c0.877,6.833,1.82,18.853,7.867,19.87c11.416,1.916,8.557-6.946,8.848-17.909c0.369-13.933,3.734-35.135,7.129-48.585
		c1.447-5.743,4.076-17.366,8.561-19.118c4.582,6.546-1.287,33.056,8.311,40.144c3.564,2.632,9.104,2.936,12.1,0.109
		c0.01-3.642-1.379-3.34-2.338-6.235c-0.777-2.338-0.898-5.243-1.15-7.957c-0.514-5.584-0.877-11.634-1.436-17.163
		c-1.035-10.188,0.004-25.861-12.26-24.596c-9.824,1.015-12.922,12.439-15.895,21.05c-1.516,4.383-2.941,9.359-3.971,14.157
		c-0.547,2.54-0.961,5.157-1.404,7.688c-0.232,1.315-0.383,2.602-0.852,3.996C404.707,133.818,404.832,133.867,403.348,134.271"/>
	<path fill-rule="evenodd" clip-rule="evenodd" fill="#5E0F82" d="M426.871,72.184c9.305,3.378,23.504-3.44,25.041,5.694
		l0.246,24.024c-0.129,19.797,0.703,44.012,2.623,63.4c1.041,10.473,2.738,32.052,12.227,37.3c4.98,2.759,9.529,1.698,12.959-0.855
		c0.184-4.781-3.557-11.539-5.061-16.719c-4.58-15.756-5.631-41.328-7.348-58.024c-1.313-12.734-2.273-28.016-2.664-40.802
		c-0.498-16.377-0.676-15.738,26.455-17.692c1.496-0.367,1.479-4.024,0.469-4.707c-6.178-2.852-15.666,0.436-22.729,0.126
		c-2.955-0.129-6.119-2.941-7.096-5.13c-1.287-2.875-1.352-7.422-5.465-6.948c-6.9,0.791,1.504,10.28-11.311,13.476
		c-4.857,1.209-11.91,1.699-15.77,2.983C427.035,69.115,426.695,69.284,426.871,72.184"/>
	<path fill-rule="evenodd" clip-rule="evenodd" fill="#5E0F82" d="M192.009,91.746c3.55,3.754,12.338,1.452,18.133,1.697
		c9.372,0.396,7.229,6.303,7.229,16.323c0,20.96,0.95,82.146,7.287,101.617c3.376,10.371,10.608,17.278,20.698,11.151
		c2.614-2.107-3.779-12.708-5.158-17.648c-1.623-5.817-2.683-12.459-3.517-18.844c-2.667-20.428-5.725-62.418-6.549-83.511
		c-0.228-5.813-0.635-10.842,10.27-12.083c15.695-1.787,17.372,0.628,16.782-5.978c-8.419-4.667-25.064,5.3-29.599-4.867
		c-1.396-3.13-1.379-7.472-5.347-7.277c-6.989,0.342,1.076,10.259-11.32,13.451c-3.369,0.867-6.778,1.259-10.272,1.813
		C196.614,88.229,193.094,88.333,192.009,91.746"/>
	<path fill-rule="evenodd" clip-rule="evenodd" fill="#F0047F" d="M258.621,124.311c-1.187,5.284-1.792,15.71-0.547,20.938
		c0.762,3.205,2.331,7.756,9.726,4.221c6.84-3.266,8.978-12.221,8.037-17.502c-0.18-1.009-0.118-4.205-1.614-7.892
		c2.294-3.976,5.644-7.881,9.087-10.899c9.788,20.821,5.419,46.33-8.049,63.525c-2.713,3.466-7.435,8.998-3.11,13.226
		c3.892,3.807,12.124,0.807,16.532,5.125c-0.61,8.85-25.237,6.943-31.654,3.317c-8.012-4.527-12.071-15.886-13.562-27.591
		c-2.783-21.821-0.492-57.359,12.858-67.471c7.082-5.362,16.503-4.84,22.948,3.997c-3.693,3.138-6.804,6.602-9.288,10.5
		c-1.183-1.354-1.899-1.569-3.625-1.705C260.655,115.65,259.7,119.504,258.621,124.311z"/>
	<path fill="none" stroke="#FFFFFF" stroke-width="0.5669" stroke-miterlimit="22.9256" d="M258.621,124.311
		c-1.187,5.284-1.792,15.71-0.547,20.938c0.762,3.205,2.331,7.756,9.726,4.221c6.84-3.266,8.978-12.221,8.037-17.502
		c-0.18-1.009-0.118-4.205-1.614-7.892c2.294-3.976,5.644-7.881,9.087-10.899c9.788,20.821,5.419,46.33-8.049,63.525
		c-2.713,3.466-7.435,8.998-3.11,13.226c3.892,3.807,12.124,0.807,16.532,5.125c-0.61,8.85-25.237,6.943-31.654,3.317
		c-8.012-4.527-12.071-15.886-13.562-27.591c-2.783-21.821-0.492-57.359,12.858-67.471c7.082-5.362,16.503-4.84,22.948,3.997
		c-3.693,3.138-6.804,6.602-9.288,10.5c-1.183-1.354-1.899-1.569-3.625-1.705C260.655,115.65,259.7,119.504,258.621,124.311z"/>
	<path fill-rule="evenodd" clip-rule="evenodd" fill="#5E0F82" d="M552.619,23.645c-32.613,5.743-34.828,49.618-19.002,66.41
		c6.09,6.459,12.363,9.973,25.084,8.921c10.746-0.886,16.469-3.316,21.682-12.875c4.285-7.854,6.879-17.395,6.74-28.376
		C586.869,37.199,574.688,19.759,552.619,23.645z M557.531,27.944c-18.523,4.301-27.951,36.127-14.338,55.554
		c16.512,23.556,36.504,2.6,37.783-25.135C581.797,40.624,568.992,25.28,557.531,27.944z M559.305,75.683
		c3.104,0.166,18.91,3.402,12.441-3.142c-3.01-3.047-12.334-5.458-9.137-9.572c0.912-1.176,3.773-3.464,5.246-5.115
		c1.662-1.871,3.35-3.745,3.605-6.764c1.107-12.958-21.189-15.787-23.824-6.187c-1.646,6.001,2.277,13.254-0.041,18.076
		c-3.867,8.048,1.707,4.888,3.988,13.348c0.721,2.678,0.943,5.991,4.088,6.234C560.289,82.916,559.084,79.353,559.305,75.683z
		 M556.256,57.133c3.568-0.112,7.459-3.449,7.752-6.719c0.318-3.539-4.514-6.701-8.27-6.413
		C553.674,48.177,554.666,53.106,556.256,57.133z"/>
	<path fill="none" stroke="#5E0F82" stroke-width="0.5669" stroke-miterlimit="22.9256" d="M552.619,23.645
		c-32.613,5.743-34.828,49.618-19.002,66.41c6.09,6.459,12.363,9.973,25.084,8.921c10.746-0.886,16.469-3.316,21.682-12.875
		c4.285-7.854,6.879-17.395,6.74-28.376C586.869,37.199,574.688,19.759,552.619,23.645z M557.531,27.944
		c-18.523,4.301-27.951,36.127-14.338,55.554c16.512,23.556,36.504,2.6,37.783-25.135C581.797,40.624,568.992,25.28,557.531,27.944z
		 M559.305,75.683c3.104,0.166,18.91,3.402,12.441-3.142c-3.01-3.047-12.334-5.458-9.137-9.572c0.912-1.176,3.773-3.464,5.246-5.115
		c1.662-1.871,3.35-3.745,3.605-6.764c1.107-12.958-21.189-15.787-23.824-6.187c-1.646,6.001,2.277,13.254-0.041,18.076
		c-3.867,8.048,1.707,4.888,3.988,13.348c0.721,2.678,0.943,5.991,4.088,6.234C560.289,82.916,559.084,79.353,559.305,75.683z
		 M556.256,57.133c3.568-0.112,7.459-3.449,7.752-6.719c0.318-3.539-4.514-6.701-8.27-6.413
		C553.674,48.177,554.666,53.106,556.256,57.133z"/>
	<path fill-rule="evenodd" clip-rule="evenodd" fill="#5E0F82" d="M523.271,174.714c-4.572-5.274-28.725,0.28-13.875-18.035
		c13.795-17.012,17.328-43.116,7.961-64.302c-5.951-13.47-19.107-15.607-26.691-9.439c-13.426,10.914-15.652,45.407-12.619,67.512
		c1.545,11.278,5.24,22.798,13.615,27.481C497.916,181.43,522.605,183.392,523.271,174.714z M501.592,93.797
		c-2.309,0.999-2.641,2.174-3.436,4.478c-0.697,2.018-1.158,4.31-1.449,6.462c-0.98,7.236-1.48,21.512-0.451,28.674
		c0.629,4.385,1.924,10.619,8.033,5.78c5.652-4.476,7.418-16.738,6.641-23.967c-0.293-2.736-2.115-20.988-7.83-21.732
		C500.08,93.097,502.746,93.296,501.592,93.797z"/>
	<path fill="none" stroke="#5E0F82" stroke-width="0.5669" stroke-miterlimit="22.9256" d="M523.271,174.714
		c-4.572-5.274-28.725,0.28-13.875-18.035c13.795-17.012,17.328-43.116,7.961-64.302c-5.951-13.47-19.107-15.607-26.691-9.439
		c-13.426,10.914-15.652,45.407-12.619,67.512c1.545,11.278,5.24,22.798,13.615,27.481
		C497.916,181.43,522.605,183.392,523.271,174.714z M501.592,93.797c-2.309,0.999-2.641,2.174-3.436,4.478
		c-0.697,2.018-1.158,4.31-1.449,6.462c-0.98,7.236-1.48,21.512-0.451,28.674c0.629,4.385,1.924,10.619,8.033,5.78
		c5.652-4.476,7.418-16.738,6.641-23.967c-0.293-2.736-2.115-20.988-7.83-21.732C500.08,93.097,502.746,93.296,501.592,93.797z"/>
	<path fill-rule="evenodd" clip-rule="evenodd" fill="#00A0C6" d="M270.634,135.036c-2.697-10.752,16.418-29.706,23.452-27.874
		c2.115,0.551-1.879-7.219-2.527-6.86c-16.651,9.225-26.552,21.273-27.944,40.743C263.109,148.159,272.469,142.339,270.634,135.036z
		"/>
	<path fill="none" stroke="#00A0C6" stroke-width="0.5669" stroke-miterlimit="22.9256" d="M270.634,135.036
		c-2.697-10.752,16.418-29.706,23.452-27.874c2.115,0.551-1.879-7.219-2.527-6.86c-16.651,9.225-26.552,21.273-27.944,40.743
		C263.109,148.159,272.469,142.339,270.634,135.036z"/>
</g>
</svg>
